<svg
  width="528"
  height="551"
  viewBox="0 0 528 551"
  fill="none"
  xmlns="http://www.w3.org/2000/svg"
>
  <line
    x1="107.005"
    y1="486.5"
    x2="427.003"
    y2="487.476"
    stroke="#590000"
    strokeWidth="3"
  />
  <line
    x1="157"
    y1="465.5"
    x2="377"
    y2="465.5"
    stroke="#590000"
    strokeWidth="3"
  />
  <line
    x1="207"
    y1="446.5"
    x2="327"
    y2="446.5"
    stroke="#590000"
    strokeWidth="3"
  />
  <path
    d="M265 275L103 367.5L265 460V275Z"
    fill="#21060E"
    stroke="#00B0BC"
  />
  <path
    d="M269 460L431 367.5L269 275V460Z"
    fill="#21060E"
    stroke="#00B0BC"
  />
  <path
    d="M269 366L431 273.5L269 181V366Z"
    fill="#21060E"
    stroke="#00B0BC"
  />
  <path
    d="M269 275L431 182.5L269 90V275Z"
    fill="#21060E"
    stroke="#00B0BC"
  />
  <path
    d="M265 181L103 273.5L265 366V181Z"
    fill="#21060E"
    stroke="#00B0BC"
  />
  <path
    d="M265 90L103 182.5L265 275V90Z"
    fill="#21060E"
    stroke="#00B0BC"
  />
  <g filter="url(#filter0_d_378_106)">
    <path
      d="M100.625 180.455L267 85.8757L433.375 180.455V369.545L267 464.124L100.625 369.545V180.455Z"
      stroke="#68FFFF"
      strokeWidth="5"
      shape-rendering="crispEdges"
    />
  </g>
  <g filter="url(#filter1_d_378_106)">
    <path
      d="M79.8404 170.715L267 65.8656L454.16 170.715V380.285L267 485.134L79.8404 380.285V170.715Z"
      stroke="#68FFFF"
      strokeWidth="5"
      shape-rendering="crispEdges"
    />
  </g>
  <line
    x1="57"
    y1="512.5"
    x2="477"
    y2="512.5"
    stroke="#590000"
    strokeWidth="3"
  />
  <defs>
    <filter
      id="filter0_d_378_106"
      x="98.1251"
      y="83"
      width="366.75"
      height="413"
      filterUnits="userSpaceOnUse"
      color-interpolation-filters="sRGB"
    >
      <feFlood flood-opacity="0" result="BackgroundImageFix" />
      <feColorMatrix
        in="SourceAlpha"
        type="matrix"
        values="0 0 0 0 0 0 0 0 0 0 0 0 0 0 0 0 0 0 127 0"
        result="hardAlpha"
      />
      <feOffset dx="20" dy="20" />
      <feGaussianBlur stdDeviation="4.5" />
      <feComposite in2="hardAlpha" operator="out" />
      <feColorMatrix
        type="matrix"
        values="0 0 0 0 0 0 0 0 0 0 0 0 0 0 0 0 0 0 0.25 0"
      />
      <feBlend
        mode="normal"
        in2="BackgroundImageFix"
        result="effect1_dropShadow_378_106"
      />
      <feBlend
        mode="normal"
        in="SourceGraphic"
        in2="effect1_dropShadow_378_106"
        result="shape"
      />
    </filter>
    <filter
      id="filter1_d_378_106"
      x="77.3405"
      y="63"
      width="408.319"
      height="454"
      filterUnits="userSpaceOnUse"
      color-interpolation-filters="sRGB"
    >
      <feFlood flood-opacity="0" result="BackgroundImageFix" />
      <feColorMatrix
        in="SourceAlpha"
        type="matrix"
        values="0 0 0 0 0 0 0 0 0 0 0 0 0 0 0 0 0 0 127 0"
        result="hardAlpha"
      />
      <feOffset dx="20" dy="20" />
      <feGaussianBlur stdDeviation="4.5" />
      <feComposite in2="hardAlpha" operator="out" />
      <feColorMatrix
        type="matrix"
        values="0 0 0 0 0 0 0 0 0 0 0 0 0 0 0 0 0 0 0.25 0"
      />
      <feBlend
        mode="normal"
        in2="BackgroundImageFix"
        result="effect1_dropShadow_378_106"
      />
      <feBlend
        mode="normal"
        in="SourceGraphic"
        in2="effect1_dropShadow_378_106"
        result="shape"
      />
    </filter>
  </defs>
</svg>