<svg width="528" height="551" viewBox="0 0 528 551" fill="none" xmlns="http://www.w3.org/2000/svg">
<path d="M152.013 453.523L387.013 455.5" stroke="#590000" stroke-width="3"/>
<path d="M265 275L103 367.5L265 460V275Z" fill="#21060E" stroke="#00B0BC"/>
<path d="M269.627 274.783L268.987 460.297L430.169 368.45L269.627 274.783Z" fill="#21060E" stroke="#00B0BC"/>
<path d="M265 181L103 273.5L265 366V181Z" fill="#21060E" stroke="#00B0BC"/>
<path d="M269 366L431 273.5L269 181V366Z" fill="#21060E" stroke="#00B0BC"/>
<path d="M269.054 272.048L430.973 180.501L269 89.0488L269.054 272.048Z" fill="#21060E" stroke="#00B0BC"/>
<path d="M265 272L265.246 88.7522L106.455 180.214L265 272Z" fill="#21060E" stroke="#00B0BC"/>
<line x1="72" y1="505.5" x2="462" y2="505.5" stroke="#590000" stroke-width="3"/>
<line x1="96" y1="487.5" x2="437" y2="487.5" stroke="#590000" stroke-width="3"/>
<line x1="129.011" y1="471.5" x2="408.011" y2="473.5" stroke="#590000" stroke-width="3"/>
<g filter="url(#filter0_d_378_106)">
<path d="M65.118 162.971L267 50.8596L468.882 162.971V387.029L267 499.14L65.118 387.029V162.971Z" stroke="#68FFFF" stroke-width="5" shape-rendering="crispEdges"/>
</g>
<g filter="url(#filter1_d_378_106)">
<path d="M100.625 180.455L267 85.8757L433.375 180.455V369.545L267 464.124L100.625 369.545V180.455Z" stroke="#68FFFF" stroke-width="5" shape-rendering="crispEdges"/>
</g>
<path d="M220.702 121.945C219.944 123.601 218.618 127.372 217.671 130.408C216.25 134.731 215.398 136.019 212.935 137.215C209.999 138.502 209.904 138.778 209.241 146.229C208.862 150.46 208.294 153.772 207.82 153.496C207.441 153.22 204.694 154.232 201.853 155.703C198.916 157.175 196.359 158.095 195.98 157.819C195.696 157.451 195.033 157.819 194.464 158.555C193.801 159.567 193.707 159.383 194.086 157.635C195.506 151.196 199.201 128.752 198.916 128.476C198.064 127.648 196.548 131.512 193.707 141.538L190.676 152.576L184.14 159.015C177.51 165.545 173.342 171.984 173.91 174.744C174.1 175.664 175.899 173.824 179.12 169.409C184.045 162.51 186.603 159.75 187.455 160.578C187.739 160.762 185.371 164.902 182.246 169.593C175.71 179.435 172.963 186.058 172.395 192.864C171.447 203.534 166.143 228.002 164.059 231.221C163.017 232.969 163.396 230.118 166.048 218.804C167.09 214.204 167.943 208.41 167.943 205.926C167.848 203.35 167.659 202.063 167.374 202.891C167.185 203.718 166.143 204.362 165.101 204.27C163.68 204.178 163.301 203.442 163.207 200.407C163.112 198.107 162.449 200.315 161.407 206.754C158.755 221.931 151.272 250.722 148.904 254.677C148.336 255.689 147.199 257.528 146.441 258.816C145.494 260.38 146.062 260.012 148.241 257.804C152.314 253.573 157.239 250.354 159.039 250.722C160.176 250.998 160.176 251.458 158.755 254.217C157.902 255.965 156.671 257.988 156.008 258.632C154.587 260.104 154.682 259.828 154.303 265.531C154.208 267.923 153.735 270.222 153.356 270.59C152.977 270.958 151.272 269.578 149.472 267.647C145.683 263.415 145.399 263.875 148.62 269.302C149.946 271.51 151.935 277.673 153.356 284.112C154.682 290.182 156.671 298.737 157.808 303.152L159.797 311.155L157.145 314.834C155.061 317.777 154.682 319.157 155.155 321.549C156.103 326.24 157.902 328.171 168.037 335.622C178.646 343.349 177.983 343.257 186.982 338.749C191.812 336.266 198.348 335.162 198.348 336.818C198.348 337.646 195.696 341.509 193.801 343.441C192.57 344.544 192.475 344.452 193.044 342.705C193.612 340.957 193.423 340.681 190.96 340.681C188.497 340.681 188.023 341.141 187.266 344.084C186.792 346.292 185.655 347.948 184.329 348.5C181.772 349.603 181.582 350.799 184.14 350.799C185.655 350.799 186.034 351.443 186.034 353.559C186.034 358.71 188.971 374.071 190.486 376.922C191.339 378.486 193.991 382.625 196.454 386.213C198.822 389.708 205.073 399.826 210.188 408.565C217.387 420.982 220.513 425.397 224.301 428.617C226.954 430.824 229.701 432.48 230.269 432.204C230.932 432.02 231.406 432.296 231.216 432.94C231.121 433.584 231.784 434.044 232.637 434.044C233.489 434.044 234.531 434.412 235.005 434.872C235.479 435.332 235.194 435.424 234.342 434.964C233.205 434.412 233.11 434.504 234.058 435.424C235.479 436.895 238.415 437.539 237.562 436.251C237.278 435.792 236.615 435.7 236.047 435.976C235.384 436.435 235.289 436.16 235.763 435.516C236.52 434.228 236.426 434.136 250.634 447.381C261.148 457.132 264.937 459.615 268.347 458.879C272.42 457.868 278.576 453.084 288.996 442.69C294.584 437.079 300.078 432.112 301.12 431.56C302.92 430.641 302.92 430.733 301.025 432.756C299.889 433.952 298.468 435.884 297.899 436.987C296.952 438.827 297.047 439.011 298.468 438.459C301.783 437.355 309.076 431.652 314.097 426.317C317.033 423.19 322.053 415.923 326.126 408.749C329.915 401.942 336.167 391.64 339.955 385.753C347.628 373.979 348.385 371.955 349.901 358.802L350.943 349.787L344.786 344.176C337.777 338.014 336.735 335.714 341.471 337.002C343.081 337.462 345.544 338.566 346.965 339.393C348.291 340.313 350.375 341.601 351.606 342.337C352.743 343.073 353.69 343.257 353.69 342.705C353.69 341.049 342.039 334.242 336.072 332.403C332.851 331.483 326.694 328.815 322.337 326.516C310.213 320.261 306.708 320.169 303.488 325.964C301.972 328.723 300.646 343.809 300.646 359.262C300.646 367.908 300.267 373.887 299.699 374.255C299.131 374.531 298.468 374.163 298.184 373.427C297.805 372.415 297.142 372.231 295.247 372.967C293.921 373.427 291.458 373.611 289.753 373.243C287.954 372.967 286.438 373.151 286.059 373.703C285.017 375.267 283.786 374.899 283.123 372.875C282.365 370.668 280.471 370.484 278.861 372.415C276.966 374.623 272.514 374.071 270.146 371.495L268.157 369.288L265.41 371.495C262.19 374.163 257.075 374.531 254.707 372.323C253.381 371.036 252.812 370.944 250.918 371.955C249.118 372.875 246.94 372.875 239.551 371.955C231.784 370.944 230.553 370.576 231.121 369.288C236.047 357.974 237.089 349.787 235.384 336.174C233.3 319.709 230.837 318.421 215.587 325.872C210.567 328.355 203.842 331.023 200.716 331.943C197.59 332.771 193.991 333.874 192.665 334.334L190.297 335.162L192.475 333.414C195.222 331.115 218.524 319.709 226.291 316.766C229.416 315.57 232.353 314.282 232.921 313.822C234.91 312.074 236.994 312.902 243.435 318.145C245.519 319.893 245.614 320.261 244.666 324.124C243.435 329.091 244.098 350.155 245.519 353.743C247.603 358.802 256.696 360.733 261.811 357.238C263.8 355.858 264.558 355.674 264.937 356.502C265.126 357.146 265.6 349.42 265.979 339.301C266.736 318.605 267.589 312.81 268.441 322.285L269.104 328.263L269.388 323.664C269.767 316.582 270.336 321.181 271.093 338.841L271.757 354.847L274.977 356.962C278.766 359.446 281.702 359.63 285.586 357.606C289.848 355.49 291.269 351.075 291.837 338.841C292.311 328.539 292.216 327.987 288.901 318.421C287.007 312.994 285.491 307.107 285.491 305.36C285.491 301.68 284.733 301.312 293.637 308.671C298.184 312.35 300.93 313.822 309.645 316.858C318.738 319.985 339.198 330.195 349.049 336.542L358.236 342.337L360.415 340.405C361.646 339.301 365.435 336.082 368.94 333.322C381.632 323.204 382.201 321.089 375.002 311.431L372.729 308.303L375.476 303.152C377.086 300.301 378.696 295.425 379.17 292.39C380.496 284.204 382.769 277.121 384.948 274.453C388.926 269.67 392.431 264.059 391.957 263.231C391.578 262.771 390.536 263.691 389.494 265.439C388.452 267.095 386.937 269.21 386.084 270.13C384.758 271.51 384.474 271.602 383.053 270.314C382.106 269.486 381.632 268.015 381.822 266.727C382.58 263.231 375.949 252.377 373.108 252.377C371.308 252.377 371.971 256.609 374.244 259.092C376.233 261.3 379.264 265.807 379.264 266.543C379.264 266.819 377.465 265.807 375.286 264.335C373.013 262.771 367.614 260.104 363.162 258.356L355.111 255.229L355.016 246.674C354.921 241.247 354.448 238.028 353.785 237.844C353.216 237.66 352.932 237.016 353.311 236.464C353.595 235.82 352.932 236.372 351.89 237.568C349.617 239.96 349.522 241.799 350.943 247.778C352.743 255.045 352.837 256.057 351.701 256.057C349.806 256.057 327.168 264.243 316.749 268.658C305.666 273.442 302.541 275.649 302.541 278.777C302.541 280.708 302.067 280.892 298.089 280.984C285.87 281.26 284.07 280.432 282.27 274.269C281.513 271.602 280.566 267.003 280.187 264.059L279.618 258.816L285.112 256.425C294.3 252.377 324.137 242.259 333.798 239.868C348.291 236.188 350.848 235.453 350.848 234.717C350.848 234.349 351.511 233.981 352.269 233.981C353.027 233.981 354.258 233.061 355.016 231.865C356.153 230.209 356.247 228.462 355.49 222.207C354.448 214.296 355.111 211.905 358.047 211.905C359.752 211.905 360.32 213.469 364.583 228.186C369.319 244.375 371.118 248.238 374.813 249.71C376.517 250.354 379.549 252.009 381.632 253.297C383.716 254.677 386.463 256.333 387.789 256.977C390.063 258.08 390.063 258.08 388.642 256.425C386.747 254.217 384.948 249.434 380.685 234.901C375.097 216.136 373.581 208.134 373.581 198.291C373.581 193.232 373.013 187.345 372.255 185.046C370.455 179.251 362.215 167.753 353.879 159.475C345.828 151.564 345.26 150.644 342.323 140.158C341.092 135.835 339.482 131.696 338.724 130.96C337.493 129.764 337.398 129.764 337.871 131.236C339.482 135.651 342.323 155.243 341.471 156.071C340.903 156.623 339.008 156.439 336.167 155.519C330.01 153.404 329.062 154.048 328.968 160.302C328.873 163.89 328.589 162.51 328.021 155.795C326.694 139.146 326.41 138.226 323.285 137.123C320.822 136.203 320.159 135.099 318.075 128.752C316.749 124.705 315.233 120.842 314.665 120.198C312.202 117.346 312.392 119.646 315.423 128.66C319.875 141.814 320.443 149.724 317.791 159.567C316.749 163.798 315.707 168.397 315.612 169.777C315.517 171.248 315.139 172.352 314.854 172.352C314.57 172.352 313.718 173.732 313.055 175.296C310.213 181.55 304.814 187.345 280.85 209.605C276.587 213.653 272.609 217.7 272.135 218.528C270.336 221.747 266.452 220.551 261.337 215.4C258.685 212.733 250.444 204.73 242.961 197.647C235.479 190.565 227.427 182.47 224.965 179.711C222.597 176.951 219.471 173.548 218.05 172.26C214.829 169.225 214.451 166.649 215.587 154.875C216.44 145.033 218.808 133.995 222.123 124.705C224.207 118.726 224.207 119.002 222.881 119.002C222.407 119.002 221.365 120.382 220.702 121.945ZM351.322 163.154C352.269 164.166 352.648 164.994 352.174 164.994C351.701 164.994 350.753 164.166 350.09 163.154C349.427 162.142 349.049 161.314 349.238 161.314C349.427 161.314 350.375 162.142 351.322 163.154ZM204.6 174.1C204.315 174.468 202.8 175.112 201.19 175.388C197.022 176.215 197.685 177.871 202.232 177.871C205.263 177.871 206.21 177.503 206.589 176.123C207.252 173.732 209.336 172.996 211.893 174.284C213.03 174.928 219.281 180.447 225.817 186.61C232.353 192.772 241.446 201.327 246.087 205.558C262.569 220.643 261.148 218.804 260.579 223.219C260.295 225.334 259.253 233.153 258.401 240.604C257.454 248.146 256.317 254.217 255.938 254.217C255.465 254.217 250.539 252.009 244.951 249.25C239.362 246.582 232.353 243.547 229.322 242.627C221.081 240.144 219.187 238.028 219.187 231.405C219.187 226.53 217.955 217.7 216.724 213.469C216.44 212.549 215.303 210.985 214.166 210.065C212.272 208.318 212.177 207.398 212.461 195.9C212.746 180.079 212.556 179.527 204.694 179.895L198.822 180.171L198.348 196.452C197.78 214.664 197.496 213.745 204.505 213.745C211.325 213.745 212.461 215.4 215.871 229.75C216.44 232.233 216.345 232.325 214.829 231.129C213.977 230.485 212.461 228.186 211.514 226.162C210.283 223.495 209.809 223.035 209.809 224.415C209.715 225.518 209.051 226.714 208.199 226.99C206.305 227.726 194.18 227.726 189.728 226.99C186.887 226.53 186.319 226.07 186.224 223.955C186.129 222.667 185.75 219.631 185.277 217.24C184.235 212.181 185.087 211.537 192.002 211.997L195.98 212.273L195.696 195.808C195.601 186.702 195.696 178.331 195.98 177.227C196.359 175.756 197.496 175.02 200.527 174.376C202.705 173.824 204.6 173.456 204.789 173.364C204.978 173.272 204.884 173.64 204.6 174.1ZM331.241 174.284C326.126 175.756 326.6 176.951 332.283 176.951C335.219 176.951 337.587 177.227 337.587 177.687C337.587 178.607 330.578 180.631 327.263 180.631C323.474 180.631 323.19 182.47 324.421 195.992L325.463 207.306L322.621 210.433C320.632 212.641 319.496 215.032 319.117 218.068C318.738 220.459 317.98 225.518 317.317 229.198C316.086 235.82 316.086 235.82 318.075 235.269C319.875 234.717 319.78 234.901 317.696 236.74C314.854 239.132 311.539 240.88 300.173 245.479C295.531 247.502 288.996 250.446 285.775 252.101C282.555 253.757 279.713 254.769 279.429 254.401C279.05 253.665 276.398 233.613 275.64 225.058C275.166 219.907 275.356 219.08 277.345 217.24C278.576 216.044 285.68 209.513 293.163 202.707C300.646 195.9 310.687 186.702 315.328 182.378C323.758 174.376 325.179 173.64 331.904 173.456C333.893 173.456 333.798 173.548 331.241 174.284ZM341.281 194.704C341.376 208.685 341.66 212.917 342.608 212.733C345.639 212.365 348.007 212.917 348.007 214.112C348.007 214.848 347.438 215.676 346.87 215.86C345.923 216.228 345.923 216.596 346.68 217.148C347.249 217.516 348.101 218.896 348.48 220.183C348.859 221.471 349.712 222.759 350.28 223.127C351.038 223.679 350.943 223.863 350.185 223.863C349.522 223.863 348.954 224.415 348.954 225.15C348.954 226.714 344.123 227.542 334.367 227.542C327.452 227.542 326.979 227.45 327.452 225.702C328.305 222.667 326.694 223.679 325.463 226.99C324.232 230.118 321.864 232.785 320.916 231.957C320.159 231.221 325.179 216.78 326.6 215.676C327.357 215.032 330.389 214.204 333.42 213.745C336.545 213.193 339.008 212.825 339.008 212.825C339.008 212.825 338.913 205.65 338.724 197.004C338.345 180.171 339.103 171.34 340.524 174.652C340.903 175.664 341.281 184.678 341.281 194.704ZM365.909 186.058C365.909 187.345 365.814 187.345 365.34 186.15C365.056 185.414 364.393 183.942 363.92 182.93C363.067 181.091 363.067 181.091 364.488 182.838C365.34 183.85 366.003 185.322 365.909 186.058ZM206.778 186.793C206.778 187.253 206.399 188.357 205.926 189.369C205.168 191.025 205.073 190.933 205.073 188.633C204.978 187.253 205.452 186.15 205.926 186.15C206.494 186.15 206.873 186.426 206.778 186.793ZM331.904 189.001C331.904 190.565 331.525 191.577 330.957 191.209C330.483 190.933 330.01 189.645 330.01 188.357C330.01 187.161 330.483 186.15 330.957 186.15C331.525 186.15 331.904 187.437 331.904 189.001ZM362.972 196.452C364.299 197.923 364.962 199.027 364.393 199.027C363.067 199.027 357.479 192.22 357.479 190.657C357.479 190.013 358.142 190.473 359.089 191.669C359.941 192.956 361.646 195.072 362.972 196.452ZM174.1 198.567C173.721 199.303 173.342 199.947 173.152 199.947C172.963 199.947 172.773 199.303 172.773 198.567C172.773 197.831 173.152 197.188 173.721 197.188C174.194 197.188 174.384 197.831 174.1 198.567ZM177.51 227.542C177.51 228.002 177.32 228.462 177.131 228.462C176.846 228.462 176.373 228.002 176.089 227.542C175.805 226.99 175.994 226.622 176.468 226.622C177.036 226.622 177.51 226.99 177.51 227.542ZM270.336 229.198C270.336 230.853 275.072 275.097 275.451 276.477C275.735 277.765 274.882 277.949 268.252 277.857L260.769 277.673L261.243 274.913C261.527 273.442 262.19 266.543 262.758 259.736C265.221 226.162 264.842 228.462 267.968 228.462C269.294 228.462 270.336 228.738 270.336 229.198ZM186.697 235.545C188.308 236.924 193.328 238.212 199.769 239.04C207.82 240.052 213.787 241.523 219.66 244.099C222.786 245.479 228.848 247.87 233.205 249.434C237.468 251.09 244.382 253.665 248.55 255.229L256.128 258.08V262.404C256.128 267.003 254.802 272.338 252.623 276.937C250.444 281.444 243.624 282.732 235.1 280.34C234.058 280.064 233.395 278.961 233.395 277.765C233.395 276.569 232.637 275.005 231.784 274.269C228.469 271.602 205.736 262.312 195.128 259.368C190.202 257.988 189.728 257.62 190.202 255.781C190.581 254.677 191.055 251.642 191.244 249.158C191.623 245.019 191.623 244.927 190.865 248.054C189.539 254.125 187.834 256.241 184.898 255.689C181.677 255.045 174.1 257.253 166.048 261.116C161.691 263.231 159.797 263.691 159.797 262.863C159.797 262.128 160.46 261.576 161.218 261.576C162.07 261.576 162.449 261.3 162.07 261.024C161.786 260.656 162.07 259.828 162.828 259.184C163.586 258.448 164.438 255.873 164.817 253.481C165.48 249.25 170.974 237.66 173.342 235.82C175.047 234.349 178.173 238.764 179.972 244.927C182.056 252.285 182.056 252.377 183.098 252.377C183.666 252.377 184.803 251.366 185.655 250.078C188.118 246.49 186.413 239.04 181.582 232.141L179.972 229.842L182.719 232.141C184.235 233.429 186.034 234.993 186.697 235.545ZM197.117 262.128C196.833 262.404 195.98 262.496 195.317 262.22C194.559 261.944 194.843 261.668 195.885 261.668C196.927 261.576 197.496 261.852 197.117 262.128ZM203.463 264.243C203.842 264.703 203.179 264.887 202.137 264.611C199.958 264.059 199.674 263.415 201.569 263.415C202.326 263.415 203.179 263.783 203.463 264.243ZM331.525 266.267C328.494 267.831 325.747 268.842 325.463 268.566C324.8 267.831 324.989 267.739 330.483 265.531C337.398 262.68 337.966 263.047 331.525 266.267ZM324.232 269.302C323.474 270.038 306.33 278.133 305.572 278.133C304.53 278.041 309.455 274.453 310.592 274.453C311.16 274.453 314.097 273.258 317.222 271.694C322.337 269.302 325.368 268.198 324.232 269.302ZM168.322 292.85C172.395 312.994 173.437 320.353 172.11 319.065C170.405 317.409 162.259 279.236 162.449 273.534L162.544 270.314L163.775 273.074C164.438 274.545 166.522 283.468 168.322 292.85ZM177.983 272.798C178.267 273.993 179.025 278.961 179.783 283.836C180.541 288.711 181.677 293.862 182.435 295.241C183.951 298.277 192.381 302.968 201.379 305.728C208.673 307.935 214.924 307.935 223.923 305.544C226.764 304.808 231.5 303.612 234.342 302.968C241.162 301.404 241.92 300.76 242.014 295.701C242.109 291.746 242.204 291.838 242.961 297.357C243.909 304.532 244.382 304.072 230.079 309.959C224.396 312.258 217.197 315.57 214.166 317.317L208.767 320.353L204.694 318.329C201.379 316.582 193.328 311.247 180.446 302.14C178.362 300.76 177.983 299.381 176.468 287.239C175.52 279.972 174.952 273.258 175.236 272.338C175.899 270.13 177.415 270.406 177.983 272.798ZM361.267 272.43C361.267 273.35 360.415 280.064 359.373 287.331C358.331 294.598 357.479 300.577 357.479 300.668C357.479 300.76 355.49 302.232 353.027 303.888C350.469 305.636 344.312 310.051 339.198 313.73L329.915 320.353L324.989 318.237C322.243 317.041 314.76 313.73 308.224 310.879C291.553 303.52 291.837 303.796 292.879 296.529L293.826 290.55L293.921 295.425C294.016 301.128 293.353 300.76 311.35 304.9C327.831 308.763 329.82 308.487 346.586 300.577C354.163 296.989 354.163 296.897 356.437 285.491C359.278 270.774 359.278 270.774 360.32 270.774C360.889 270.774 361.267 271.51 361.267 272.43ZM375.476 278.409C373.297 289.355 367.898 307.567 365.53 312.074C363.257 316.582 360.131 319.893 361.741 316.214C363.73 311.614 368.277 297.817 370.834 288.251C372.444 282.456 374.149 276.017 374.718 273.993C376.233 268.474 376.802 271.878 375.476 278.409ZM276.114 296.069C277.534 303.336 278.955 307.751 281.513 312.258C283.407 315.662 284.733 318.697 284.354 319.065C283.975 319.433 280.66 317.777 277.061 315.386C269.578 310.603 268.82 309.223 269.767 301.772C270.146 299.105 270.62 294.506 270.904 291.47C271.946 280.156 273.083 281.26 276.114 296.069ZM265.41 293.034C267.115 305.544 266.926 308.855 264.463 311.614C262.474 313.822 251.392 320.813 251.392 319.893C251.392 319.709 253.286 315.846 255.654 311.431C259.253 304.532 260.011 302.048 260.864 294.782C261.432 289.998 262.095 285.767 262.379 285.399C263.611 283.376 264.368 285.123 265.41 293.034ZM163.964 317.317C163.964 322.928 164.249 323.572 167.469 326.792C169.364 328.631 170.879 330.471 170.879 330.747C170.879 331.851 161.312 325.32 159.797 323.204C157.997 320.721 158.755 316.214 161.596 313.362C162.733 312.166 163.68 311.247 163.775 311.247C163.775 311.247 163.87 314.006 163.964 317.317ZM376.896 316.858C377.275 317.777 376.802 319.801 375.854 321.273C374.528 323.388 373.96 323.756 373.013 322.928C369.035 319.433 369.035 319.433 366.288 321.733C364.867 322.836 359.941 326.056 355.3 328.723L347.059 333.598L343.934 332.127C341.187 330.747 341.092 330.655 343.46 331.115C348.007 332.035 366.382 321.273 370.74 315.11C372.823 312.258 373.013 312.166 374.623 313.638C375.57 314.466 376.612 315.938 376.896 316.858ZM348.101 315.662C346.302 317.041 342.702 319.893 340.05 322.009C335.788 325.596 333.798 326.7 333.798 325.596C333.798 325.044 350.185 313.086 350.848 313.086C351.132 313.178 349.901 314.282 348.101 315.662ZM180.256 326.976C179.309 327.528 179.878 327.803 182.056 327.803C183.951 327.803 184.992 328.171 184.614 328.723C184.235 329.275 185.277 329.643 186.887 329.643C188.971 329.643 189.823 330.103 189.823 331.115C189.823 332.311 189.16 332.495 186.413 331.943C182.624 331.299 174.668 327.803 174.668 326.792C174.668 326.424 176.183 326.148 178.078 326.148C180.446 326.148 181.204 326.424 180.256 326.976ZM341.376 327.803C339.103 329.183 337.871 328.815 339.861 327.344C340.903 326.608 341.944 326.24 342.229 326.516C342.513 326.792 342.134 327.344 341.376 327.803ZM229.606 328.631C229.606 330.655 226.859 331.943 225.533 330.655C224.112 329.275 225.533 326.884 227.711 326.884C228.943 326.884 229.606 327.528 229.606 328.631ZM310.971 327.712C312.771 328.815 311.539 331.483 309.266 331.483C307.087 331.483 305.951 330.103 306.708 328.263C307.277 326.7 308.982 326.516 310.971 327.712ZM218.997 336.634C223.165 341.509 224.207 346.476 223.733 357.974C223.354 367.172 223.354 367.632 224.68 364.597C226.575 359.998 229.606 358.342 229.606 361.837C229.606 364.505 226.575 370.116 225.154 370.116C223.165 370.116 222.312 367.264 221.744 358.71C221.27 352.547 220.513 349.328 218.618 345.556C216.156 340.589 212.556 337.278 210.662 338.382C209.146 339.301 208.388 336.266 209.715 334.702C211.893 332.219 215.966 333.047 218.997 336.634ZM325.842 334.702C327.642 336.082 327.547 336.174 325.274 337.646C317.601 342.705 313.907 349.144 313.907 357.422C313.907 364.045 312.96 366.896 309.55 370.668C306.045 374.623 305.666 375.635 307.75 375.635C308.792 375.635 309.171 376.646 309.171 379.13C309.171 382.257 308.792 382.809 305.856 384.189C302.73 385.661 302.446 385.661 301.878 384.189C301.593 383.361 301.688 381.154 302.162 379.314C302.825 377.106 302.825 375.267 302.257 373.979C301.593 372.507 301.783 371.036 302.92 368.368C303.962 366.252 304.34 364.045 303.962 362.757C302.825 359.354 305.098 355.674 308.887 354.755C312.202 354.019 312.392 353.835 314.097 346.66C315.896 339.301 317.507 336.45 321.011 334.426C323.474 333.047 323.663 333.047 325.842 334.702ZM250.255 340.681C251.581 340.681 251.676 340.865 250.444 341.601C248.834 342.613 247.603 341.141 247.792 338.382C247.887 336.818 247.887 336.818 248.266 338.566C248.455 339.761 249.402 340.681 250.255 340.681ZM287.67 340.405C287.007 340.589 285.87 340.589 285.302 340.405C284.639 340.129 285.112 339.945 286.438 339.945C287.764 339.945 288.238 340.129 287.67 340.405ZM208.294 354.847C209.715 357.33 210.946 360.549 210.851 362.021C210.851 363.493 211.325 364.597 211.988 364.597C212.84 364.597 213.409 367.264 213.882 373.979C214.166 379.222 214.735 384.557 215.019 385.937C215.398 387.409 215.208 388.512 214.735 388.512C214.166 388.512 212.651 383.269 211.135 376.738C209.146 367.908 207.441 363.125 204.221 357.054C200.716 350.431 200.242 348.776 201.19 347.58C202.516 346.016 203.652 347.12 208.294 354.847ZM335.693 348.684C335.693 349.144 333.798 353.099 331.43 357.698C327.547 365.241 322.621 382.349 322.337 388.972C322.337 390.628 322.243 390.628 321.201 388.696C320.443 387.041 320.443 384.925 321.295 380.142C321.958 376.646 322.432 372.231 322.432 370.3C322.432 367.908 323.095 366.344 324.421 365.149C325.937 363.953 326.126 363.217 325.368 362.481C323.758 360.917 324.042 359.998 328.115 353.743C330.673 349.787 332.472 348.04 333.798 348.04C334.84 348.04 335.693 348.316 335.693 348.684ZM226.006 376.187C225.343 379.774 223.923 379.774 223.923 376.187C223.923 373.795 224.301 373.059 225.249 373.427C226.006 373.703 226.291 374.807 226.006 376.187ZM222.028 376.003C222.028 378.026 219.565 379.958 218.429 378.854C217.671 378.118 219.944 373.795 221.081 373.795C221.555 373.795 222.028 374.807 222.028 376.003ZM234.626 375.635C235.1 376.003 235.289 378.118 235.1 380.326C234.815 384.281 234.721 384.373 231.595 384.189C226.764 384.005 225.722 382.441 226.954 377.658C227.901 373.887 228.09 373.703 230.932 374.347C232.542 374.623 234.247 375.267 234.626 375.635ZM317.412 377.842C316.18 380.878 313.528 378.026 314.665 374.899C314.949 373.887 315.328 373.887 316.559 374.991C317.317 375.819 317.696 377.106 317.412 377.842ZM311.729 379.498C311.539 380.694 311.35 379.958 311.35 377.934C311.255 375.911 311.444 374.991 311.729 375.819C311.918 376.738 311.918 378.394 311.729 379.498ZM241.825 376.463C243.246 377.29 243.34 378.026 242.488 382.901C242.014 386.029 241.162 388.512 240.688 388.512C238.51 388.512 236.52 386.581 236.805 384.649C238.225 374.991 238.415 374.715 241.825 376.463ZM299.699 382.073C299.699 385.845 299.415 386.489 297.236 387.5C295.816 388.052 294.489 388.328 294.205 388.052C293.921 387.776 293.542 385.385 293.258 382.717C292.879 378.302 293.069 377.75 295.058 376.83C298.373 375.451 299.699 376.922 299.699 382.073ZM252.718 378.578C254.423 384.741 252.623 391.272 249.213 391.272C244.951 391.272 243.53 389.34 244.288 384.465C245.045 379.682 247.413 376.555 250.35 376.555C251.392 376.555 252.339 377.382 252.718 378.578ZM289.659 378.578C290.322 379.774 291.174 382.625 291.553 385.017C292.121 389.8 290.89 391.272 286.154 391.272C283.975 391.272 283.786 390.904 283.312 385.017C282.839 379.958 283.028 378.67 284.354 377.658C286.533 376.003 288.143 376.279 289.659 378.578ZM266.357 378.854C266.736 379.222 267.21 382.717 267.305 386.673C267.684 393.111 267.494 393.939 265.979 394.215C264.084 394.583 255.275 393.479 254.517 392.744C253.665 392.008 256.033 380.142 257.264 378.67C258.022 377.658 259.443 377.382 262.095 377.75C264.084 378.026 266.073 378.486 266.357 378.854ZM279.713 379.13C280.187 380.05 280.944 383.269 281.229 386.397C281.986 392.56 281.797 392.836 276.303 394.123C270.809 395.319 270.336 394.675 270.336 386.305C270.336 382.073 270.62 378.394 270.999 378.118C271.283 377.75 273.177 377.474 275.166 377.474C277.724 377.474 279.05 378.026 279.713 379.13ZM222.975 385.569C222.975 388.512 221.46 390.444 219.565 389.708C218.239 389.248 217.766 384.741 218.902 383.637C219.187 383.269 220.323 382.993 221.27 382.993C222.502 382.993 222.975 383.729 222.975 385.569ZM317.507 387.776C317.507 390.444 317.222 392.008 316.938 391.272C316.654 390.536 315.991 389.616 315.328 389.248C313.812 388.328 314.665 382.993 316.37 382.993C317.317 382.993 317.601 384.281 317.507 387.776ZM312.96 386.121C312.96 389.524 311.255 393.111 309.739 393.111C308.413 393.111 308.698 390.628 310.592 385.017C311.255 383.085 312.96 383.821 312.96 386.121ZM226.101 387.776C226.385 389.432 226.954 391.916 227.238 393.295C227.806 395.319 227.617 395.871 226.385 395.871C225.249 395.871 224.87 394.951 224.87 392.376C224.87 390.536 224.586 388.052 224.301 386.857C223.923 385.753 224.112 384.833 224.68 384.833C225.154 384.833 225.817 386.213 226.101 387.776ZM307.75 390.076C307.087 394.491 304.909 398.079 303.393 397.159C302.92 396.883 302.541 394.859 302.541 392.744C302.541 389.616 303.014 388.42 304.719 387.317C308.034 385.017 308.508 385.477 307.75 390.076ZM234.342 391.824C234.342 396.515 233.3 396.791 230.269 392.836C228.659 390.812 228.564 390.168 229.606 388.972C230.269 388.236 231.595 387.592 232.542 387.592C234.058 387.592 234.342 388.328 234.342 391.824ZM299.699 393.019C299.699 397.067 299.32 397.803 296.763 399.55C295.247 400.654 293.826 401.482 293.637 401.298C293.542 401.114 293.637 398.538 293.826 395.687C294.205 390.352 294.395 390.168 299.51 388.604C299.604 388.512 299.699 390.536 299.699 393.019ZM240.12 390.352C241.541 391.18 241.92 392.376 241.92 396.331C241.92 399.09 241.541 401.39 241.162 401.39C240.688 401.39 239.267 400.286 237.941 398.814C235.952 396.791 235.668 395.687 235.952 392.836C236.426 389.248 237.089 388.88 240.12 390.352ZM248.455 393.203C251.107 394.123 251.392 394.583 251.392 398.079C251.392 402.678 249.687 405.437 247.034 404.885C245.519 404.609 245.14 403.598 244.761 398.354C244.477 394.951 244.572 392.192 244.856 392.192C245.14 392.192 246.75 392.652 248.455 393.203ZM290.795 396.423C290.132 401.298 288.901 403.23 286.438 403.23C285.112 403.23 284.639 402.31 284.354 398.814C283.881 393.939 285.112 392.192 289.09 392.192C291.364 392.192 291.364 392.376 290.795 396.423ZM264.558 396.791C267.684 396.791 267.778 396.791 267.115 400.194C266.831 402.126 266.547 404.425 266.547 405.253C266.547 407.645 263.137 410.588 260.485 410.588C259.253 410.588 257.17 409.76 255.749 408.657C253.57 407.001 253.286 406.081 253.286 401.482C253.286 398.538 253.475 395.963 253.854 395.687C254.138 395.411 255.938 395.503 257.833 395.963C259.727 396.423 262.758 396.791 264.558 396.791ZM281.702 400.47C281.702 404.793 281.323 406.357 279.808 407.829C275.545 411.968 270.62 408.933 269.673 401.666L269.104 396.883L272.325 396.423C274.125 396.147 276.871 395.779 278.387 395.595C279.997 395.411 281.323 395.135 281.513 395.043C281.607 395.043 281.702 397.435 281.702 400.47ZM318.833 397.895C318.075 398.63 317.98 398.263 318.359 396.699C318.738 395.503 319.117 395.043 319.401 395.779C319.59 396.423 319.306 397.435 318.833 397.895ZM300.741 400.746C300.173 401.482 300.078 402.31 300.457 402.77C300.836 403.138 300.078 403.138 298.847 402.77C297.236 402.31 296.857 402.402 297.331 403.23C297.71 403.781 298.847 404.149 299.794 403.873C300.741 403.598 301.688 403.69 301.878 404.057C302.067 404.333 302.067 404.057 301.972 403.414C301.783 402.862 302.067 402.31 302.541 402.31C303.109 402.31 303.488 402.678 303.488 403.138C303.488 403.598 304.246 404.701 305.098 405.529C306.045 406.541 306.708 408.657 306.708 410.956C306.803 414.268 307.087 414.727 308.982 414.635C310.213 414.635 311.066 415.095 311.066 415.831C311.066 417.487 306.708 421.626 302.92 423.558C301.309 424.386 297.615 427.881 294.774 431.376C286.438 441.495 271.757 454.832 267.399 456.12C266.452 456.488 264.842 456.12 263.895 455.476C261.243 453.728 248.834 440.483 242.393 432.756C239.362 429.077 234.437 424.57 231.595 422.638C228.185 420.522 226.196 418.499 225.722 416.843C225.059 414.452 225.249 414.268 227.996 414.543C230.837 414.727 231.027 414.543 232.637 408.933C235.1 399.918 235.289 400.194 234.626 411.784L234.058 422.638L240.593 429.261C244.193 432.94 249.213 438.091 251.676 440.759C254.138 443.334 256.506 445.542 256.98 445.542C258.685 445.542 260.011 440.207 260.579 431.744C261.148 423.282 261.337 422.454 265.126 416.475C268.157 411.692 269.578 410.22 270.904 410.404C278.292 411.692 278.482 411.692 281.513 409.208C283.218 407.829 284.544 406.081 284.544 405.345C284.544 404.241 284.828 404.149 285.87 404.977C287.007 405.897 288.427 405.621 292.784 403.69C295.816 402.402 298.941 401.022 299.699 400.47C301.688 399.274 301.972 399.366 300.741 400.746ZM257.454 415.923C258.211 417.119 256.412 419.143 255.275 418.499C253.76 417.579 253.949 415.187 255.559 415.187C256.317 415.187 257.17 415.555 257.454 415.923ZM313.907 423.926C313.907 424.57 305.193 429.905 304.151 429.905C302.446 429.905 304.719 427.973 308.982 425.765C314.002 423.282 313.907 423.282 313.907 423.926ZM233.584 430.824C234.721 431.836 235.194 432.664 234.626 432.664C234.058 432.664 233.11 432.112 232.542 431.468C231.974 430.733 229.606 429.261 227.238 428.065C224.87 426.869 222.975 425.581 222.975 425.122C222.975 424.11 230.932 428.341 233.584 430.824Z" fill="#274852"/>
<path d="M230.553 233.429C228.28 236.188 229.795 238.856 234.247 240.144C236.52 240.788 239.173 241.523 240.12 241.799C241.541 242.259 241.92 241.891 241.92 240.052C241.92 238.58 241.351 237.66 240.499 237.66C239.741 237.66 239.078 237.016 239.078 236.188C239.078 235.452 237.562 234.165 235.763 233.429C231.784 231.865 231.974 231.865 230.553 233.429Z" fill="#274852"/>
<path d="M238.794 233.153C239.93 233.797 241.067 234.901 241.351 235.728C241.635 236.556 241.73 236.188 241.635 234.901C241.446 233.153 240.878 232.509 239.078 232.417C236.71 232.141 236.71 232.141 238.794 233.153Z" fill="#274852"/>
<path d="M301.12 233.245C299.604 233.613 297.047 233.889 295.437 233.797C292.69 233.521 292.595 233.613 292.311 237.844C292.027 241.615 292.311 242.259 293.732 242.259C299.794 242.259 307.845 237.476 306.708 234.533C305.951 232.693 304.435 232.325 301.12 233.245ZM297.805 235.728C297.805 236.188 296.952 236.74 295.91 237.016C294.679 237.292 294.016 237.016 294.016 236.188C294.016 235.453 294.868 234.901 295.91 234.901C296.952 234.901 297.805 235.269 297.805 235.728Z" fill="#274852"/>
<path d="M292.595 404.977C292.311 405.437 293.448 406.081 295.153 406.265C297.615 406.633 297.426 406.725 294.3 406.633C292.121 406.541 290.038 406.817 289.659 407.185C289.28 407.553 289.469 407.829 290.038 407.829C290.701 407.829 290.417 409.208 289.469 411.508C288.617 413.532 287.291 415.187 286.533 415.187C285.775 415.187 285.491 415.739 285.87 416.567C286.154 417.303 285.965 417.947 285.491 417.947C284.923 417.947 284.544 418.591 284.544 419.327C284.544 420.062 285.112 420.706 285.775 420.706C286.533 420.706 286.533 420.982 285.586 421.534C284.828 421.994 284.544 423.006 284.828 423.834C285.396 425.213 285.68 425.213 288.048 423.742C289.469 422.822 290.89 422.178 291.174 422.178C291.458 422.27 291.553 421.994 291.458 421.534C291.269 421.074 291.837 420.706 292.69 420.706C293.448 420.706 294.774 420.062 295.531 419.327C296.384 418.499 296.573 417.947 295.91 417.947C295.247 417.947 295.342 417.487 296.1 416.659C296.763 415.923 297.615 415.555 297.994 415.739C298.373 415.923 298.847 415.739 299.226 415.187C299.51 414.727 299.51 414.267 299.036 414.267C298.657 414.267 298.373 412.428 298.562 410.128C298.941 406.357 298.752 405.897 296.384 405.069C293.353 403.965 293.353 403.965 292.595 404.977Z" fill="#274852"/>
<path d="M265.126 432.388C265.884 446.094 266.168 447.565 268.252 447.197C269.578 446.921 269.957 445.542 270.146 440.115C270.336 436.067 270.999 432.572 271.756 431.376C272.514 430.365 273.177 427.973 273.177 426.041C273.177 422.27 271.378 420.706 267.02 420.706H264.463L265.126 432.388Z" fill="#274852"/>
<path d="M168.701 178.147C167.848 180.355 167.943 188.817 168.89 191.209C169.458 192.588 169.837 191.945 170.216 188.449C170.974 183.022 169.837 175.48 168.701 178.147Z" fill="#274852"/>
<defs>
<filter id="filter0_d_378_106" x="62.618" y="48" width="437.764" height="483" filterUnits="userSpaceOnUse" color-interpolation-filters="sRGB">
<feFlood flood-opacity="0" result="BackgroundImageFix"/>
<feColorMatrix in="SourceAlpha" type="matrix" values="0 0 0 0 0 0 0 0 0 0 0 0 0 0 0 0 0 0 127 0" result="hardAlpha"/>
<feOffset dx="20" dy="20"/>
<feGaussianBlur stdDeviation="4.5"/>
<feComposite in2="hardAlpha" operator="out"/>
<feColorMatrix type="matrix" values="0 0 0 0 0 0 0 0 0 0 0 0 0 0 0 0 0 0 0.25 0"/>
<feBlend mode="normal" in2="BackgroundImageFix" result="effect1_dropShadow_378_106"/>
<feBlend mode="normal" in="SourceGraphic" in2="effect1_dropShadow_378_106" result="shape"/>
</filter>
<filter id="filter1_d_378_106" x="98.1251" y="83" width="366.75" height="413" filterUnits="userSpaceOnUse" color-interpolation-filters="sRGB">
<feFlood flood-opacity="0" result="BackgroundImageFix"/>
<feColorMatrix in="SourceAlpha" type="matrix" values="0 0 0 0 0 0 0 0 0 0 0 0 0 0 0 0 0 0 127 0" result="hardAlpha"/>
<feOffset dx="20" dy="20"/>
<feGaussianBlur stdDeviation="4.5"/>
<feComposite in2="hardAlpha" operator="out"/>
<feColorMatrix type="matrix" values="0 0 0 0 0 0 0 0 0 0 0 0 0 0 0 0 0 0 0.25 0"/>
<feBlend mode="normal" in2="BackgroundImageFix" result="effect1_dropShadow_378_106"/>
<feBlend mode="normal" in="SourceGraphic" in2="effect1_dropShadow_378_106" result="shape"/>
</filter>
</defs>
</svg>
